<svg xmlns="http://www.w3.org/2000/svg" viewBox="0 0 24 24" fill="none" stroke="currentColor" stroke-width="2" stroke-linecap="round" stroke-linejoin="round"><line x1="5.41" y1="8.61" x2="5.41" y2="13.8" stroke-width="1" stroke-miterlimit="10"/><rect x="8.06" y="8.61" width="2.6" height="5.19" rx="1.3" stroke-width="1"/><polyline points="3.54 0.9 2.21 5.26 6.57 6.58" stroke-width="1.8"/><path d="M3.23,6.93A7,7,0,0,1,8.06,5a7.16,7.16,0,0,1,7,8.4" transform="translate(-0.51 -1.76)" stroke-width="2"/><path d="M13.85,16.35a7.13,7.13,0,0,1-3.33,2.54" transform="translate(-0.51 -1.76)" stroke-width="1.8"/><path d="M5.47,18.78A5.09,5.09,0,0,0,8,19.26" transform="translate(-0.51 -1.76)" stroke-width="1.6"/><path d="M2,15.85a7,7,0,0,0,1.44,1.71" transform="translate(-0.51 -1.76)" stroke-width="1.3"/><path d="M1,12.26a7.25,7.25,0,0,0,.14,1.41" transform="translate(-0.51 -1.76)" stroke-width="1"/></svg>