<svg xmlns="http://www.w3.org/2000/svg" viewBox="0 0 24 24" fill="none" stroke="currentColor" stroke-width="2" stroke-linecap="round" stroke-linejoin="round"><line x1="5.91" y1="8.61" x2="5.91" y2="13.8" stroke-width="1" stroke-miterlimit="10"/><rect x="8.56" y="8.61" width="2.6" height="5.19" rx="1.3" stroke-width="1"/><polyline points="9.1 6.58 13.46 5.26 12.13 0.9" stroke-width="1.8"/><path d="M13,6.93A7.08,7.08,0,0,0,8.13,5a7.16,7.16,0,0,0-7,8.4" transform="translate(-0.01 -1.76)"/><path d="M2.34,16.35a7.11,7.11,0,0,0,3.32,2.54" transform="translate(-0.01 -1.76)" stroke-width="1.8"/><path d="M8.17,19.26a5.15,5.15,0,0,0,2.55-.48" transform="translate(-0.01 -1.76)" stroke-width="1.6"/><path d="M12.75,17.56a6.93,6.93,0,0,0,1.43-1.71" transform="translate(-0.01 -1.76)" stroke-width="1.3"/><path d="M15,13.67a6.55,6.55,0,0,0,.14-1.41" transform="translate(-0.01 -1.76)" stroke-width="1"/></svg>